<?xml version="1.0" encoding="UTF-8" standalone="no"?>
<!DOCTYPE svg PUBLIC "-//W3C//DTD SVG 1.1//EN" "http://www.w3.org/Graphics/SVG/1.1/DTD/svg11.dtd">
<svg version="1.1" xmlns="http://www.w3.org/2000/svg" width="1108" height="514" id="Brent_spot_prices"> 
  <!-- Price source: http://tonto.eia.doe.gov/dnav/pet/xls/pet_pri_spt_s1_m.xls -->
  <!-- US Consumer Price Index for All Urban Consumers (CPI-U): http://www.bls.gov/CPI/ 
       specifically ftp://ftp.bls.gov/pub/special.requests/cpi/cpiai.txt -->
  <defs>
    <style type="text/css"><![CDATA[
    path {
      fill: none; 
      stroke: black; 
      stroke-width: 0.5; 
    }
    text {
      font-family: Arial, sans-serif;
      font-size: 6px; 
    }
    .x, .y, #Source_information_text_box {
      font-size: 5px;
    }
    .label {
      text-anchor: end;
    }
    #Source_information_text_box {
      fill: gray;
    }
    .graph {
      stroke-width: 0.8;
      fill: none;
    }
    ]]></style>
  </defs>

  <g transform="matrix(3, 0, 0, -3, 56, 432)" id="Scaling"> 
    <g id="Y_axis"> 
      <path d="M 0,0 L 0,140" id="Y_axis_line"/> 
      <path d="M 0,0 L -1,0" id="y_0_dash"/> 
      <path d="M 0,20 L -1,20" id="y_20_dash"/> 
      <path d="M 0,40 L -1,40" id="y_40_dash"/> 
      <path d="M 0,60 L -1,60" id="y_60_dash"/> 
      <path d="M 0,80 L -1,80" id="y_80_dash"/> 
      <path d="M 0,100 L -1,100" id="y_100_dash"/> 
      <path d="M 0,120 L -1,120" id="y_120_dash"/> 
      <path d="M 0,140 L -1,140" id="y_140_dash"/> 
      <g transform="translate(-4, -2)" id="Y_axis_labels"> 
        <text x="0" y="0" transform="scale(1, -1)" class="y label">$0</text> 
        <text x="0" y="-20" transform="scale(1, -1)" class="y label">$20</text> 
        <text x="0" y="-40" transform="scale(1, -1)" class="y label">$40</text> 
        <text x="0" y="-60" transform="scale(1, -1)" class="y label">$60</text> 
        <text x="0" y="-80" transform="scale(1, -1)" class="y label">$80</text> 
        <text x="0" y="-100" transform="scale(1, -1)" class="y label">$100</text> 
        <text x="0" y="-120" transform="scale(1, -1)" class="y label">$120</text> 
        <text x="0" y="-140" transform="scale(1, -1)" class="y label">$140</text> 
      </g> 
    </g> 
    <g id="X_axis"> 
      <path d="M 0,0 L 346,0" id="X_axis_line"/> 
      <path d="M 0,0 L 0,-1" id="x_1987_dash"/> 
      <path d="M 8,0 L 8,-1" id="x_1988_dash"/> 
      <path d="M 20,0 L 20,-1" id="x_1989_dash"/> 
      <path d="M 32,0 L 32,-1" id="x_1990_dash"/> 
      <path d="M 44,0 L 44,-1" id="x_1991_dash"/> 
      <path d="M 56,0 L 56,-1" id="x_1992_dash"/> 
      <path d="M 68,0 L 68,-1" id="x_1993_dash"/> 
      <path d="M 80,0 L 80,-1" id="x_1994_dash"/> 
      <path d="M 92,0 L 92,-1" id="x_1995_dash"/> 
      <path d="M 104,0 L 104,-1" id="x_1996_dash"/> 
      <path d="M 116,0 L 116,-1" id="x_1997_dash"/> 
      <path d="M 128,0 L 128,-1" id="x_1998_dash"/> 
      <path d="M 140,0 L 140,-1" id="x_1999_dash"/> 
      <path d="M 152,0 L 152,-1" id="x_2000_dash"/> 
      <path d="M 164,0 L 164,-1" id="x_2001_dash"/> 
      <path d="M 176,0 L 176,-1" id="x_2002_dash"/> 
      <path d="M 188,0 L 188,-1" id="x_2003_dash"/> 
      <path d="M 200,0 L 200,-1" id="x_2004_dash"/> 
      <path d="M 212,0 L 212,-1" id="x_2005_dash"/> 
      <path d="M 224,0 L 224,-1" id="x_2006_dash"/> 
      <path d="M 236,0 L 236,-1" id="x_2007_dash"/> 
      <path d="M 248,0 L 248,-1" id="x_2008_dash"/> 
      <path d="M 260,0 L 260,-1" id="x_2009_dash"/> 
      <path d="M 272,0 L 272,-1" id="x_2010_dash"/> 
      <path d="M 284,0 L 284,-1" id="x_2011_dash"/> 
      <path d="M 296,0 L 296,-1" id="x_2012_dash"/> 
      <path d="M 308,0 L 308,-1" id="x_2013_dash"/> 
      <path d="M 320,0 L 320,-1" id="x_2014_dash"/> 
      <path d="M 332,0 L 332,-1" id="x_2015_dash"/> 
      <path d="M 344,0 L 344,-1" id="x_2016_dash"/> 
      <g transform="scale(1, -1) rotate(270) translate(-2, 2)" id="X_axis_labels"> 
        <text x="0" y="0" class="x label">May 1987</text> 
        <text x="0" y="8" class="x label">Jan 1988</text> 
        <text x="0" y="20" class="x label">Jan 1989</text> 
        <text x="0" y="32" class="x label">Jan 1990</text> 
        <text x="0" y="44" class="x label">Jan 1991</text> 
        <text x="0" y="56" class="x label">Jan 1992</text> 
        <text x="0" y="68" class="x label">Jan 1993</text> 
        <text x="0" y="80" class="x label">Jan 1994</text> 
        <text x="0" y="92" class="x label">Jan 1995</text> 
        <text x="0" y="104" class="x label">Jan 1996</text> 
        <text x="0" y="116" class="x label">Jan 1997</text> 
        <text x="0" y="128" class="x label">Jan 1998</text> 
        <text x="0" y="140" class="x label">Jan 1999</text> 
        <text x="0" y="152" class="x label">Jan 2000</text> 
        <text x="0" y="164" class="x label">Jan 2001</text> 
        <text x="0" y="176" class="x label">Jan 2002</text> 
        <text x="0" y="188" class="x label">Jan 2003</text> 
        <text x="0" y="200" class="x label">Jan 2004</text> 
        <text x="0" y="212" class="x label">Jan 2005</text> 
        <text x="0" y="224" class="x label">Jan 2006</text> 
        <text x="0" y="236" class="x label">Jan 2007</text> 
        <text x="0" y="248" class="x label">Jan 2008</text> 
        <text x="0" y="260" class="x label">Jan 2009</text> 
        <text x="0" y="272" class="x label">Jan 2010</text> 
        <text x="0" y="284" class="x label">Jan 2011</text> 
        <text x="0" y="296" class="x label">Jan 2012</text> 
        <text x="0" y="308" class="x label">Jan 2013</text> 
        <text x="0" y="320" class="x label">Jan 2014</text>
        <text x="0" y="332" class="x label">Jan 2015</text> 
        <text x="0" y="344" class="x label">Jan 2016</text> 
      </g> 
    </g> 
    <g id="Graph"> 
      <path d="M 0 18.58 L 1 18.86 2 19.86 3 18.98 4 18.31 5 18.76 6 17.78 7 17.05 8 16.75 9 15.73 10 14.73 11 16.60 12 16.31 13 15.54 14 14.91 15 14.89 16 13.18 17 12.41 18 13.02 19 15.31 20 17.17 21 16.89 22 18.70 23 20.32 24 18.63 25 17.67 26 17.62 27 16.77 28 17.77 29 18.91 30 18.73 31 19.84 32 21.25 33 19.81 34 18.39 35 16.61 36 16.35 37 15.10 38 17.17 39 27.17 40 34.90 41 36.02 42 33.07 43 28.27 44 23.57 45 19.54 46 19.08 47 19.18 48 19.19 49 18.17 50 19.40 51 19.77 52 20.50 53 22.21 54 21.11 55 18.41 56 18.16 57 18.05 58 17.63 59 18.92 60 19.89 61 21.16 62 20.24 63 19.74 64 20.27 65 20.26 66 19.21 67 18.14 68 17.39 69 18.47 70 18.79 71 18.67 72 18.51 73 17.65 74 16.78 75 16.70 76 16.01 77 16.61 78 15.20 79 13.73 80 14.29 81 13.80 82 13.82 83 15.23 84 16.19 85 16.76 86 17.60 87 16.89 88 15.90 89 16.49 90 17.19 91 15.93 92 16.55 93 17.11 94 17.01 95 18.65 96 18.35 97 17.31 98 15.85 99 16.10 100 16.70 101 16.11 102 16.86 103 17.93 104 17.85 105 18.00 106 19.85 107 20.90 108 19.15 109 18.46 110 19.57 111 20.51 112 22.63 113 24.16 114 22.76 115 23.78 116 23.54 117 20.85 118 19.13 119 17.56 120 19.02 121 17.58 122 18.46 123 18.60 124 18.46 125 19.87 126 19.17 127 17.18 128 15.19 129 14.07 130 13.10 131 13.53 132 14.36 133 12.21 134 12.08 135 11.91 136 13.34 137 12.70 138 11.04 139 9.82 140 11.11 141 10.27 142 12.51 143 15.29 144 15.23 145 15.86 146 19.08 147 20.22 148 22.54 149 22.00 150 24.58 151 25.47 152 25.51 153 27.78 154 27.49 155 22.76 156 27.74 157 29.80 158 28.68 159 30.20 160 33.14 161 30.96 162 32.55 163 25.66 164 25.62 165 27.50 166 24.50 167 25.66 168 28.31 169 27.85 170 24.61 171 25.68 172 25.62 173 20.54 174 18.80 175 18.71 176 19.42 177 20.28 178 23.70 179 25.73 180 25.35 181 24.08 182 25.74 183 26.65 184 28.40 185 27.54 186 24.34 187 28.33 188 31.18 189 32.77 190 30.61 191 25.00 192 25.86 193 27.65 194 28.35 195 29.89 196 27.11 197 29.61 198 28.75 199 29.81 200 31.28 201 30.86 202 33.63 203 33.59 204 37.57 205 35.18 206 38.22 207 42.74 208 43.20 209 49.78 210 43.11 211 39.60 212 44.51 213 45.48 214 53.10 215 51.88 216 48.65 217 54.35 218 57.52 219 63.98 220 62.91 221 58.54 222 55.24 223 56.86 224 62.99 225 60.21 226 62.06 227 70.26 228 69.78 229 68.56 230 73.67 231 73.23 232 61.96 233 57.81 234 58.76 235 62.47 236 53.68 237 57.56 238 62.05 239 67.49 240 67.21 241 71.05 242 76.93 243 70.76 244 77.17 245 82.34 246 92.41 247 90.93 248 92.18 249 94.99 250 103.64 251 109.07 252 122.80 253 132.32 254 132.72 255 113.24 256 97.23 257 71.58 258 52.45 259 39.95 260 43.44 261 43.32 262 46.54 263 50.18 264 57.30 265 68.61 266 64.44 267 72.51 268 67.65 269 72.77 270 76.66 271 74.46 272 76.17 273 73.75 274 78.83 275 84.82 276 75.95 277 74.76 278 75.58 279 77.04 280 77.84 281 82.67 282 85.28 283 91.45 284 96.52 285 103.72 286 114.64 287 123.26 288 114.99 289 113.83 290 116.97 291 110.22 292 112.83 293 109.55 294 110.77 295 107.87 296 110.69 297 119.33 298 125.45 299 119.75 300 110.34 301 95.16 302 102.62 303 113.36 304 112.86 305 111.71 306 109.06 307 109.49 308 112.96 309 116.05 310 108.47 311 102.25 312 102.56 313 102.92 314 107.93 315 111.28 316 111.60 317 109.08 318 107.79 319 110.76 320 108.12 321 108.90 322 107.48 323 107.76 324 109.54 325 111.80 326 106.77 327 101.61 328 97.09 329 87.43 330 79.44 331 62.34 332 47.76 333 58.10 334 55.89 335 59.52 336 64.08 337 61.48 338 56.56 339 46.52 340 47.62 341 48.43" id="Brent_Nominal" class="graph" style="stroke: cyan;"/>

      <path d="M 0 39.072 L 1 39.521 2 41.507 3 39.459 4 37.868 5 38.698 6 36.644 7 35.140 8 34.432 9 32.252 10 30.072 11 33.716 12 33.014 13 31.322 14 29.925 15 29.760 16 26.166 17 24.555 18 25.741 19 30.218 20 33.722 21 33.035 22 36.366 23 39.260 24 35.791 25 33.865 26 33.687 27 32.011 28 33.811 29 35.808 30 35.383 31 37.420 32 39.671 33 36.809 34 33.985 35 30.648 36 30.098 37 27.647 38 31.317 39 49.104 40 62.551 41 64.172 42 58.784 43 50.252 44 41.648 45 34.476 46 33.614 47 33.741 48 33.659 49 31.776 50 33.877 51 34.422 52 35.537 53 38.445 54 36.435 55 31.752 56 31.275 57 30.974 58 30.101 59 32.257 60 33.863 61 35.896 62 34.262 63 33.321 64 34.119 65 33.982 66 32.175 67 30.404 68 29.004 69 30.698 70 31.121 71 30.836 72 30.530 73 29.071 74 27.638 75 27.430 76 26.242 77 27.114 78 24.795 79 22.397 80 23.247 81 22.373 82 22.330 83 24.574 84 26.106 85 26.934 86 28.207 87 26.960 88 25.312 89 26.234 90 27.311 91 25.309 92 26.189 93 26.968 94 26.721 95 29.201 96 28.675 97 26.997 98 24.720 99 25.044 100 25.926 101 24.929 102 26.106 103 27.781 104 27.496 105 27.638 106 30.322 107 31.803 108 29.084 109 28.018 110 29.646 111 31.011 112 34.108 113 36.299 114 34.131 115 35.661 116 35.190 117 31.071 118 28.437 119 26.070 120 28.255 121 26.084 122 27.355 123 27.511 124 27.236 125 29.244 126 28.231 127 25.332 128 22.356 129 20.669 130 19.209 131 19.803 132 20.979 133 17.816 134 17.605 135 17.336 136 19.393 137 18.418 138 16.011 139 14.250 140 16.083 141 14.849 142 18.032 143 21.881 144 21.795 145 22.696 146 27.222 147 28.780 148 31.929 149 31.108 150 34.736 151 35.994 152 35.943 153 38.911 154 38.190 155 31.601 156 38.470 157 41.111 158 39.475 159 41.567 160 45.377 161 42.319 162 44.467 163 35.074 164 34.800 165 37.204 166 33.071 167 34.499 168 37.891 169 37.212 170 32.976 171 34.409 172 34.175 173 27.491 174 25.205 175 25.184 176 26.080 177 27.128 178 31.526 179 34.035 180 33.533 181 31.835 182 33.992 183 35.077 184 37.318 185 36.128 186 31.930 187 37.247 188 40.813 189 42.567 190 39.523 191 32.350 192 33.518 193 35.799 194 36.665 195 38.510 196 34.815 197 38.067 198 37.061 199 38.470 200 40.170 201 39.418 202 42.681 203 42.495 204 47.253 205 44.107 206 47.995 207 53.642 208 54.105 209 62.020 210 53.682 211 49.492 212 55.512 213 56.397 214 65.335 215 63.407 216 59.521 217 66.460 218 70.012 219 77.479 220 75.264 221 69.895 222 66.489 223 68.717 224 75.549 225 72.070 226 73.875 227 82.931 228 81.957 229 80.366 230 86.101 231 85.419 232 72.629 233 68.134 234 69.357 235 73.626 236 63.074 237 67.273 238 71.866 239 77.662 240 76.870 241 81.105 242 87.839 243 80.943 244 88.033 245 93.730 246 104.572 247 102.966 248 103.865 249 106.722 250 115.439 251 120.755 252 134.821 253 143.823 254 143.505 255 122.932 256 105.698 257 78.608 258 58.725 259 45.197 260 48.932 261 48.556 262 52.038 263 55.968 264 63.726 265 75.654 266 71.169 267 79.902 268 74.500 269 80.062 270 84.282 271 82.007 272 83.605 273 80.929 274 86.149 275 92.535 276 82.794 277 81.576 278 82.454 279 83.931 280 84.753 281 89.900 282 92.699 283 99.235 284 104.240 285 111.467 286 122.012 287 130.347 288 121.033 289 119.940 290 123.139 291 115.714 292 118.275 293 115.074 294 116.454 295 113.685 296 116.146 297 124.663 298 130.069 299 123.785 300 114.192 301 98.627 302 106.532 303 117.030 304 115.996 305 114.859 306 112.668 307 113.418 308 116.667 309 118.885 310 110.830 311 104.584 312 104.714 313 104.830 314 109.890 315 113.165 316 113.358 317 111.085 318 109.996 319 113.036 320 109.933 321 110.318 322 108.183 323 108.108 324 109.511 325 111.563 326 106.585 327 101.604 328 97.011 329 87.579 330 80.007 331 63.143 332 48.604 333 58.871 334 56.297 335 59.832 336 64.089 337 61.274 338 56.367 339 46.427 340 47.599 341 48.430 " id="Brent_Real" class="graph" style="stroke: red;"/> 
    </g> 
    <g transform="matrix(1, 0, 0, -1, 20, 100)"> 
      <text x="8" y="0" id="Legend_text_box"> 
        <tspan x="8" y="0" id="Nominal_legend"> 
          Nominal
        </tspan> 
        <tspan x="8" y="8" id="Real_legend"> 
          Real
        </tspan> 
      </text> 
      <rect width="6" height="6" x="0" y="-5" id="Nominal_legend_square" class="legend_square" style="fill: cyan;"/> 
      <rect width="6" height="6" x="0" y="3" id="Real_legend_square" class="legend_square" style="fill: red;"/> 
      <text x="0" y="16" id="Source_information_text_box"> 
        <tspan x="0" y="16" id="Data_text"> 
          May 1987 – October 2015 monthly average Brent spot prices
        </tspan> 
        <tspan x="0" y="22" id="Conversion_text"> 
          Conversion to actual dollars uses US CPI for All Urban Consumers (CPI-U)
        </tspan> 
        <tspan x="0" y="28" id="Source_text"> 
          Sources: Energy Information Administration and Bureau of Labor Statistics
        </tspan> 
      </text> 
    </g> 
  </g> 
</svg>